<?xml version="1.0" encoding="UTF-8"?>
<svg id="RV_Works" xmlns="http://www.w3.org/2000/svg" viewBox="0 0 1730.5 1430.44">
 <defs>
  <style>
   .cls-1 {
    fill: #FFC400;
   }
  </style>
 </defs>
 <g id="Logo">
  <path class="cls-1" d="M537.33,471.27c-.53.07-1.07.27-1.47.6-.47.27-.8.73-1.07,1.2-.2.47-.33,1-.27,1.53,0,.53.2,1.07.47,1.53l155.12,255.02c2.6,4.2,1.4,6.33-3.53,6.39l-235.77,1.67c-1.07,0-2.06-.13-3.13-.4-1-.27-2-.67-2.93-1.2s-1.8-1.2-2.53-1.93c-.8-.73-1.47-1.6-2-2.53L158.76,268.73c-2.33-3.8-1.27-5.66,3.2-5.66l523.3-.4c.53,0,1-.07,1.53-.2.47-.13,1-.33,1.4-.6.47-.2.87-.53,1.27-.87.33-.4.67-.73.93-1.2l28.71-47.49c2.4-3.93,1.27-5.86-3.4-5.86H126.46c-.67,0-1.27,0-1.93-.27-.6-.13-1.2-.4-1.8-.67-.53-.33-1.07-.73-1.53-1.2-.47-.4-.87-.93-1.2-1.47L1.18,5.92C-1.15,1.99-.02,0,4.57,0h1082.76c5.99,0,7.46,2.53,4.33,7.59l-257.55,425.93c-.53.87-.87,1.73-1.13,2.66s-.4,1.86-.4,2.86.13,1.93.4,2.86.6,1.8,1.13,2.66l153.32,253.16c.4.67.67,1.33.87,2.13.2.73.33,1.47.33,2.2,0,.8-.13,1.53-.33,2.26s-.47,1.4-.87,2.06l-119.75,197.88s-.47.53-.73.67c-.33.2-.67.27-1,.27-.4,0-.73-.13-1-.27-.33-.2-.6-.4-.8-.73l-261.28-430.52c-.27-.47-.6-.87-.93-1.2-.33-.4-.73-.73-1.2-1-.4-.27-.87-.53-1.33-.67-.47-.2-1-.27-1.47-.33-21.11-2.13-41.29-1.86-60.61.8h0Z"/>
  <path class="cls-1" d="M1352.62,206.73c-10.86-.33-22.58-.4-35.3-.33-.6,0-4.26-.2-11.12-.67-10.66-.73-18.32,3.46-22.98,12.59-2.73,5.39-4.2,8.19-4.4,8.46-84.25,138.4-167.44,275.8-249.56,412.21-.4.73-1,1.27-1.73,1.67-.73.47-1.53.67-2.33.67-.87,0-1.67-.27-2.4-.67-.73-.47-1.27-1-1.73-1.73l-118.89-196.48c-.27-.4-.47-.87-.6-1.4-.13-.47-.2-.93-.2-1.47s0-1,.2-1.47c.13-.53.33-1,.6-1.4L1163.13,4.52c.4-.67.93-1.33,1.47-1.86.6-.6,1.27-1.07,1.93-1.47.73-.4,1.47-.67,2.2-.87.8-.2,1.6-.33,2.4-.33l552.27.4c7.19,0,8.92,3.06,5.2,9.19-282.6,465.49-562.73,929.84-840.53,1392.93-6.19,10.32-12.19,18.92-17.85,25.78-.6.73-1.4,1.27-2.26,1.67-.93.33-1.8.53-2.8.47-.93-.07-1.8-.4-2.66-.87-.8-.53-1.47-1.2-1.93-2-120.35-199.21-240.17-397.09-359.32-593.77-8.72-14.39-14.12-25.38-16.32-32.97-.13-.4-.13-.8-.07-1.2.13-.4.27-.73.53-1.07s.53-.53.93-.73c.33-.2.73-.27,1.13-.27h235.11c1.2,0,2.33.13,3.46.47s2.26.73,3.26,1.33c1,.6,1.93,1.33,2.8,2.13.87.87,1.6,1.8,2.2,2.8l127.88,212c.4.67.93,1.2,1.6,1.53.73.4,1.47.6,2.2.6.8-.07,1.53-.2,2.2-.6.73-.4,1.27-.93,1.67-1.6l485.94-803.76c.33-.6.53-1.2.53-1.86s-.13-1.33-.47-1.86c-.33-.6-.8-1.07-1.33-1.47-.6-.33-1.2-.53-1.86-.53h-.02Z"/>
 </g>
</svg>
